<svg width="41" height="46" viewBox="0 0 41 46" fill="none" xmlns="http://www.w3.org/2000/svg">
<path d="M0.0594788 9.96976L16.013 0.650391V39.4286L19.8832 41.956L23.4371 39.4286L23.5071 13.085L26.499 14.8627L26.5171 41.5612L19.8832 45.8259L13.3277 41.5622V5.46773L2.58682 11.8657V31.8473L6.29887 34.2168L6.28148 14.2888L12.5421 10.2327V14.2888L9.38705 16.2031L9.30014 40.0609L0.0597145 34.2165L0.0594788 9.96976Z" fill="white"/>
<path d="M17.179 7.8005V11.6166L20.019 10.1731L30.4439 16.3562V39.7447L40.1795 34.0582V10.1731L23.515 0.413574V7.48156L26.4363 9.259V5.86299L37.1772 12.0063V31.8469L33.2284 34.0582V14.3137L20.0178 6.25798L17.179 7.8005Z" fill="white"/>
</svg>
