<svg width="23" height="26" viewBox="0 0 23 26" fill="none" xmlns="http://www.w3.org/2000/svg">
<g clip-path="url(#clip0_191_93)">
<g clip-path="url(#clip1_191_93)">
<path d="M8.53574 2.06348V3.62598H14.9643V2.06348C14.9643 1.20068 15.6825 0.500977 16.5715 0.500977C17.4604 0.500977 18.1786 1.20068 18.1786 2.06348V3.62598H20.5893C21.9202 3.62598 23 4.67529 23 5.96973V8.31348H0.500031V5.96973C0.500031 4.67529 1.57933 3.62598 2.91074 3.62598H5.32146V2.06348C5.32146 1.20068 6.03965 0.500977 6.9286 0.500977C7.81755 0.500977 8.53574 1.20068 8.53574 2.06348ZM0.500031 9.87598H23V23.1572C23 24.4512 21.9202 25.501 20.5893 25.501H2.91074C1.57933 25.501 0.500031 24.4512 0.500031 23.1572V9.87598ZM3.71432 15.3447C3.71432 15.7744 4.07391 16.126 4.51789 16.126H6.12503C6.56699 16.126 6.9286 15.7744 6.9286 15.3447V13.7822C6.9286 13.3525 6.56699 13.001 6.12503 13.001H4.51789C4.07391 13.001 3.71432 13.3525 3.71432 13.7822V15.3447ZM10.1429 15.3447C10.1429 15.7744 10.5045 16.126 10.9465 16.126H12.5536C12.9956 16.126 13.3572 15.7744 13.3572 15.3447V13.7822C13.3572 13.3525 12.9956 13.001 12.5536 13.001H10.9465C10.5045 13.001 10.1429 13.3525 10.1429 13.7822V15.3447ZM17.375 13.001C16.9331 13.001 16.5715 13.3525 16.5715 13.7822V15.3447C16.5715 15.7744 16.9331 16.126 17.375 16.126H18.9822C19.4241 16.126 19.7857 15.7744 19.7857 15.3447V13.7822C19.7857 13.3525 19.4241 13.001 18.9822 13.001H17.375ZM3.71432 21.5947C3.71432 22.0244 4.07391 22.376 4.51789 22.376H6.12503C6.56699 22.376 6.9286 22.0244 6.9286 21.5947V20.0322C6.9286 19.6025 6.56699 19.251 6.12503 19.251H4.51789C4.07391 19.251 3.71432 19.6025 3.71432 20.0322V21.5947ZM10.9465 19.251C10.5045 19.251 10.1429 19.6025 10.1429 20.0322V21.5947C10.1429 22.0244 10.5045 22.376 10.9465 22.376H12.5536C12.9956 22.376 13.3572 22.0244 13.3572 21.5947V20.0322C13.3572 19.6025 12.9956 19.251 12.5536 19.251H10.9465ZM16.5715 21.5947C16.5715 22.0244 16.9331 22.376 17.375 22.376H18.9822C19.4241 22.376 19.7857 22.0244 19.7857 21.5947V20.0322C19.7857 19.6025 19.4241 19.251 18.9822 19.251H17.375C16.9331 19.251 16.5715 19.6025 16.5715 20.0322V21.5947Z" fill="#999999"/>
</g>
</g>
<defs>
<clipPath id="clip0_191_93">
<rect width="22.5" height="25" fill="white" transform="translate(0.500031 0.500977)"/>
</clipPath>
<clipPath id="clip1_191_93">
<rect width="22.5" height="25" fill="white" transform="translate(0.500031 0.500977)"/>
</clipPath>
</defs>
</svg>
