<svg width="150" height="169" viewBox="0 0 150 169" fill="none" xmlns="http://www.w3.org/2000/svg">
<g clip-path="url(#clip0_210_3)">
<path d="M0.84375 36.0848L59.8178 1.63464V144.983L74.1244 154.326L87.262 144.983L87.5208 47.6007L98.5805 54.1721L98.6475 152.867L74.1244 168.631L49.8915 152.87V19.4425L10.1864 43.0936V116.958L23.9084 125.717L23.8442 52.0506L46.9873 37.0568V52.0506L35.3243 59.1272L35.003 147.321L0.844622 125.716L0.84375 36.0848Z" fill="#3A2B98"/>
<path d="M64.1284 28.0658V42.1726L74.6268 36.8364L113.164 59.6931V146.151L149.153 125.131V36.8364L87.5501 0.759155V26.8868L98.3492 33.4574V20.9036L138.054 43.613V116.956L123.457 125.131V52.1426L74.6223 22.3637L64.1284 28.0658Z" fill="#3A2B98"/>
</g>
<defs>
<clipPath id="clip0_210_3">
<rect width="148.312" height="167.872" fill="white" transform="translate(0.84375 0.759155)"/>
</clipPath>
</defs>
</svg>
