<svg width="14" height="14" viewBox="0 0 14 14" fill="none" xmlns="http://www.w3.org/2000/svg">
<path d="M9.27755 7.06648C9.27755 8.32312 8.25873 9.34194 7.00209 9.34194C5.74545 9.34194 4.72662 8.32312 4.72662 7.06648C4.72662 5.80984 5.74545 4.79102 7.00209 4.79102C8.25873 4.79102 9.27755 5.80984 9.27755 7.06648Z" fill="#CFCFCF"/>
<path d="M10.8451 0.189453H3.15907C1.48605 0.189453 0.125122 1.55039 0.125122 3.2234V10.9094C0.125122 12.5824 1.48605 13.9434 3.15907 13.9434H10.8451C12.5181 13.9434 13.879 12.5824 13.879 10.9094V3.2234C13.879 1.55039 12.5181 0.189453 10.8451 0.189453ZM7.00208 10.8588C4.9109 10.8588 3.20964 9.15758 3.20964 7.06641C3.20964 4.97523 4.9109 3.27397 7.00208 3.27397C9.09325 3.27397 10.7945 4.97523 10.7945 7.06641C10.7945 9.15758 9.09325 10.8588 7.00208 10.8588ZM11.3507 3.47623C10.9318 3.47623 10.5922 3.13669 10.5922 2.71774C10.5922 2.2988 10.9318 1.95926 11.3507 1.95926C11.7697 1.95926 12.1092 2.2988 12.1092 2.71774C12.1092 3.13669 11.7697 3.47623 11.3507 3.47623Z" fill="#CFCFCF"/>
</svg>
