<svg width="203" height="46" viewBox="0 0 203 46" fill="none" xmlns="http://www.w3.org/2000/svg">
<path d="M0.22879 10.1011L16.1823 0.781738V39.56L20.0525 42.0873L23.6064 39.56L23.6764 13.2163L26.6683 14.994L26.6864 41.6926L20.0525 45.9573L13.4971 41.6935V5.59908L2.75613 11.9971V31.9787L6.46818 34.3481L6.45079 14.4201L12.7114 10.364V14.4201L9.55636 16.3345L9.46945 40.1923L0.229026 34.3479L0.22879 10.1011Z" fill="white"/>
<path d="M17.3483 7.93185V11.748L20.1883 10.3044L30.6132 16.4876V39.876L40.3488 34.1895V10.3044L23.6843 0.544922V7.61291L26.6056 9.39035V5.99434L37.3466 12.1376V31.9782L33.3977 34.1895V14.445L20.1871 6.38932L17.3483 7.93185Z" fill="white"/>
<path d="M59.2049 31.371C58.1009 31.371 57.0529 31.147 56.0609 30.699C55.0849 30.251 54.2209 29.635 53.4689 28.851C52.7329 28.051 52.1569 27.123 51.7409 26.067C51.3249 25.011 51.1169 23.867 51.1169 22.635C51.1169 21.467 51.3249 20.371 51.7409 19.347C52.1569 18.307 52.7409 17.395 53.4929 16.611C54.2449 15.827 55.1249 15.211 56.1329 14.763C57.1409 14.315 58.2369 14.091 59.4209 14.091C61.0209 14.091 62.3889 14.435 63.5249 15.123C64.6769 15.795 65.5409 16.691 66.1169 17.811L63.6449 19.635C63.2129 18.787 62.6049 18.139 61.8209 17.691C61.0529 17.243 60.2129 17.019 59.3009 17.019C58.5809 17.019 57.9249 17.171 57.3329 17.475C56.7409 17.779 56.2289 18.195 55.7969 18.723C55.3649 19.251 55.0289 19.859 54.7889 20.547C54.5649 21.235 54.4529 21.963 54.4529 22.731C54.4529 23.547 54.5729 24.299 54.8129 24.987C55.0689 25.675 55.4209 26.275 55.8689 26.787C56.3329 27.299 56.8689 27.707 57.4769 28.011C58.0849 28.299 58.7569 28.443 59.4929 28.443C60.3569 28.443 61.1809 28.219 61.9649 27.771C62.7649 27.323 63.5089 26.667 64.1969 25.803V29.067C62.7729 30.603 61.1089 31.371 59.2049 31.371ZM63.9569 24.915H60.5249V22.491H66.6929V31.251H63.9569V24.915ZM83.8435 14.211V31.251H80.5555V23.979H72.8275V31.251H69.5155V14.211H72.8275V21.099H80.5555V14.211H83.8435ZM92.0303 14.211H95.3903L101.654 31.251H98.2463L96.6623 27.003H90.7103L89.1503 31.251H85.7423L92.0303 14.211ZM96.0623 24.675L93.7103 17.643L91.2623 24.675H96.0623ZM115.619 31.371C114.515 31.371 113.467 31.147 112.475 30.699C111.499 30.251 110.635 29.635 109.883 28.851C109.147 28.051 108.571 27.123 108.155 26.067C107.739 25.011 107.531 23.867 107.531 22.635C107.531 21.467 107.739 20.371 108.155 19.347C108.571 18.307 109.155 17.395 109.907 16.611C110.659 15.827 111.539 15.211 112.547 14.763C113.555 14.315 114.651 14.091 115.835 14.091C117.435 14.091 118.803 14.435 119.939 15.123C121.091 15.795 121.955 16.691 122.531 17.811L120.059 19.635C119.627 18.787 119.019 18.139 118.235 17.691C117.467 17.243 116.627 17.019 115.715 17.019C114.995 17.019 114.339 17.171 113.747 17.475C113.155 17.779 112.643 18.195 112.211 18.723C111.779 19.251 111.443 19.859 111.203 20.547C110.979 21.235 110.867 21.963 110.867 22.731C110.867 23.547 110.987 24.299 111.227 24.987C111.483 25.675 111.835 26.275 112.283 26.787C112.747 27.299 113.283 27.707 113.891 28.011C114.499 28.299 115.171 28.443 115.907 28.443C116.771 28.443 117.595 28.219 118.379 27.771C119.179 27.323 119.923 26.667 120.611 25.803V29.067C119.187 30.603 117.523 31.371 115.619 31.371ZM120.371 24.915H116.939V22.491H123.107V31.251H120.371V24.915ZM125.93 31.251V14.211H129.242V28.347H137.93V31.251H125.93ZM146.842 31.371C145.594 31.371 144.458 31.131 143.434 30.651C142.426 30.171 141.554 29.523 140.818 28.707C140.098 27.875 139.538 26.947 139.138 25.923C138.738 24.883 138.538 23.819 138.538 22.731C138.538 21.595 138.746 20.515 139.162 19.491C139.594 18.451 140.178 17.531 140.914 16.731C141.666 15.915 142.546 15.275 143.554 14.811C144.578 14.331 145.698 14.091 146.914 14.091C148.146 14.091 149.266 14.339 150.274 14.835C151.298 15.331 152.17 15.995 152.89 16.827C153.61 17.659 154.17 18.587 154.57 19.611C154.97 20.635 155.17 21.691 155.17 22.779C155.17 23.899 154.962 24.979 154.546 26.019C154.13 27.043 153.546 27.963 152.794 28.779C152.058 29.579 151.178 30.211 150.154 30.675C149.146 31.139 148.042 31.371 146.842 31.371ZM141.898 22.731C141.898 23.467 142.01 24.179 142.234 24.867C142.458 25.555 142.778 26.171 143.194 26.715C143.626 27.243 144.146 27.667 144.754 27.987C145.378 28.291 146.082 28.443 146.866 28.443C147.666 28.443 148.378 28.283 149.002 27.963C149.626 27.627 150.146 27.187 150.562 26.643C150.978 26.083 151.29 25.467 151.498 24.795C151.722 24.107 151.834 23.419 151.834 22.731C151.834 21.995 151.714 21.291 151.474 20.619C151.25 19.931 150.922 19.323 150.49 18.795C150.074 18.251 149.554 17.827 148.93 17.523C148.322 17.203 147.634 17.043 146.866 17.043C146.05 17.043 145.33 17.211 144.706 17.547C144.098 17.867 143.586 18.299 143.17 18.843C142.754 19.387 142.434 19.995 142.21 20.667C142.002 21.339 141.898 22.027 141.898 22.731ZM171.439 26.859C171.439 27.819 171.191 28.627 170.695 29.283C170.199 29.923 169.527 30.411 168.679 30.747C167.847 31.083 166.935 31.251 165.943 31.251H157.711V14.211H166.831C167.631 14.211 168.319 14.427 168.895 14.859C169.487 15.275 169.935 15.819 170.239 16.491C170.559 17.147 170.719 17.835 170.719 18.555C170.719 19.371 170.511 20.147 170.095 20.883C169.679 21.619 169.071 22.163 168.271 22.515C169.247 22.803 170.015 23.323 170.575 24.075C171.151 24.827 171.439 25.755 171.439 26.859ZM168.103 26.235C168.103 25.803 168.015 25.419 167.839 25.083C167.663 24.731 167.423 24.459 167.119 24.267C166.831 24.059 166.495 23.955 166.111 23.955H161.023V28.443H165.943C166.343 28.443 166.703 28.347 167.023 28.155C167.359 27.947 167.623 27.675 167.815 27.339C168.007 27.003 168.103 26.635 168.103 26.235ZM161.023 17.043V21.339H165.439C165.807 21.339 166.143 21.251 166.447 21.075C166.751 20.899 166.991 20.651 167.167 20.331C167.359 20.011 167.455 19.627 167.455 19.179C167.455 18.747 167.367 18.371 167.191 18.051C167.031 17.731 166.807 17.483 166.519 17.307C166.247 17.131 165.935 17.043 165.583 17.043H161.023ZM178.28 14.211H181.64L187.904 31.251H184.496L182.912 27.003H176.96L175.4 31.251H171.992L178.28 14.211ZM182.312 24.675L179.96 17.643L177.512 24.675H182.312ZM189.773 31.251V14.211H193.085V28.347H201.773V31.251H189.773Z" fill="white"/>
</svg>
