<svg width="203" height="46" viewBox="0 0 203 46" fill="none" xmlns="http://www.w3.org/2000/svg">
<path d="M0 9.85013L15.9535 0.530762V39.309L19.8237 41.8363L23.3776 39.309L23.4476 12.9654L26.4395 14.743L26.4576 41.4416L19.8237 45.7063L13.2683 41.4425V5.3481L2.52734 11.7461V31.7277L6.23939 34.0971L6.222 14.1692L12.4826 10.1131V14.1692L9.32757 16.0835L9.24066 39.9413L0.000235776 34.0969L0 9.85013Z" fill="#4D36AB"/>
<path d="M17.1195 7.68087V11.497L19.9595 10.0534L30.3844 16.2366V39.625L40.12 33.9385V10.0534L23.4555 0.293945V7.36193L26.3768 9.13937V5.74336L37.1178 11.8867V31.7273L33.1689 33.9385V14.194L19.9583 6.13835L17.1195 7.68087Z" fill="#4D36AB"/>
<path d="M58.9761 31.12C57.8721 31.12 56.8241 30.896 55.8321 30.448C54.8561 30 53.9921 29.384 53.2401 28.6C52.5041 27.8 51.9281 26.872 51.5121 25.816C51.0961 24.76 50.8881 23.616 50.8881 22.384C50.8881 21.216 51.0961 20.12 51.5121 19.096C51.9281 18.056 52.5121 17.144 53.2641 16.36C54.0161 15.576 54.8961 14.96 55.9041 14.512C56.9121 14.064 58.0081 13.84 59.1921 13.84C60.7921 13.84 62.1601 14.184 63.2961 14.872C64.4481 15.544 65.3121 16.44 65.8881 17.56L63.4161 19.384C62.9841 18.536 62.3761 17.888 61.5921 17.44C60.8241 16.992 59.9841 16.768 59.0721 16.768C58.3521 16.768 57.6961 16.92 57.1041 17.224C56.5121 17.528 56.0001 17.944 55.5681 18.472C55.1361 19 54.8001 19.608 54.5601 20.296C54.3361 20.984 54.2241 21.712 54.2241 22.48C54.2241 23.296 54.3441 24.048 54.5841 24.736C54.8401 25.424 55.1921 26.024 55.6401 26.536C56.1041 27.048 56.6401 27.456 57.2481 27.76C57.8561 28.048 58.5281 28.192 59.2641 28.192C60.1281 28.192 60.9521 27.968 61.7361 27.52C62.5361 27.072 63.2801 26.416 63.9681 25.552V28.816C62.5441 30.352 60.8801 31.12 58.9761 31.12ZM63.7281 24.664H60.2961V22.24H66.4641V31H63.7281V24.664ZM83.6147 13.96V31H80.3267V23.728H72.5987V31H69.2867V13.96H72.5987V20.848H80.3267V13.96H83.6147ZM91.8016 13.96H95.1616L101.426 31H98.0176L96.4336 26.752H90.4816L88.9216 31H85.5136L91.8016 13.96ZM95.8336 24.424L93.4816 17.392L91.0336 24.424H95.8336ZM115.39 31.12C114.286 31.12 113.238 30.896 112.246 30.448C111.27 30 110.406 29.384 109.654 28.6C108.918 27.8 108.342 26.872 107.926 25.816C107.51 24.76 107.302 23.616 107.302 22.384C107.302 21.216 107.51 20.12 107.926 19.096C108.342 18.056 108.926 17.144 109.678 16.36C110.43 15.576 111.31 14.96 112.318 14.512C113.326 14.064 114.422 13.84 115.606 13.84C117.206 13.84 118.574 14.184 119.71 14.872C120.862 15.544 121.726 16.44 122.302 17.56L119.83 19.384C119.398 18.536 118.79 17.888 118.006 17.44C117.238 16.992 116.398 16.768 115.486 16.768C114.766 16.768 114.11 16.92 113.518 17.224C112.926 17.528 112.414 17.944 111.982 18.472C111.55 19 111.214 19.608 110.974 20.296C110.75 20.984 110.638 21.712 110.638 22.48C110.638 23.296 110.758 24.048 110.998 24.736C111.254 25.424 111.606 26.024 112.054 26.536C112.518 27.048 113.054 27.456 113.662 27.76C114.27 28.048 114.942 28.192 115.678 28.192C116.542 28.192 117.366 27.968 118.15 27.52C118.95 27.072 119.694 26.416 120.382 25.552V28.816C118.958 30.352 117.294 31.12 115.39 31.12ZM120.142 24.664H116.71V22.24H122.878V31H120.142V24.664ZM125.701 31V13.96H129.013V28.096H137.701V31H125.701ZM146.613 31.12C145.365 31.12 144.229 30.88 143.205 30.4C142.197 29.92 141.325 29.272 140.589 28.456C139.869 27.624 139.309 26.696 138.909 25.672C138.509 24.632 138.309 23.568 138.309 22.48C138.309 21.344 138.517 20.264 138.933 19.24C139.365 18.2 139.949 17.28 140.685 16.48C141.437 15.664 142.317 15.024 143.325 14.56C144.349 14.08 145.469 13.84 146.685 13.84C147.917 13.84 149.037 14.088 150.045 14.584C151.069 15.08 151.941 15.744 152.661 16.576C153.381 17.408 153.941 18.336 154.341 19.36C154.741 20.384 154.941 21.44 154.941 22.528C154.941 23.648 154.733 24.728 154.317 25.768C153.901 26.792 153.317 27.712 152.565 28.528C151.829 29.328 150.949 29.96 149.925 30.424C148.917 30.888 147.813 31.12 146.613 31.12ZM141.669 22.48C141.669 23.216 141.781 23.928 142.005 24.616C142.229 25.304 142.549 25.92 142.965 26.464C143.397 26.992 143.917 27.416 144.525 27.736C145.149 28.04 145.853 28.192 146.637 28.192C147.437 28.192 148.149 28.032 148.773 27.712C149.397 27.376 149.917 26.936 150.333 26.392C150.749 25.832 151.061 25.216 151.269 24.544C151.493 23.856 151.605 23.168 151.605 22.48C151.605 21.744 151.485 21.04 151.245 20.368C151.021 19.68 150.693 19.072 150.261 18.544C149.845 18 149.325 17.576 148.701 17.272C148.093 16.952 147.405 16.792 146.637 16.792C145.821 16.792 145.101 16.96 144.477 17.296C143.869 17.616 143.357 18.048 142.941 18.592C142.525 19.136 142.205 19.744 141.981 20.416C141.773 21.088 141.669 21.776 141.669 22.48ZM171.21 26.608C171.21 27.568 170.962 28.376 170.466 29.032C169.97 29.672 169.298 30.16 168.45 30.496C167.618 30.832 166.706 31 165.714 31H157.482V13.96H166.602C167.402 13.96 168.09 14.176 168.666 14.608C169.258 15.024 169.706 15.568 170.01 16.24C170.33 16.896 170.49 17.584 170.49 18.304C170.49 19.12 170.282 19.896 169.866 20.632C169.45 21.368 168.842 21.912 168.042 22.264C169.018 22.552 169.786 23.072 170.346 23.824C170.922 24.576 171.21 25.504 171.21 26.608ZM167.874 25.984C167.874 25.552 167.786 25.168 167.61 24.832C167.434 24.48 167.194 24.208 166.89 24.016C166.602 23.808 166.266 23.704 165.882 23.704H160.794V28.192H165.714C166.114 28.192 166.474 28.096 166.794 27.904C167.13 27.696 167.394 27.424 167.586 27.088C167.778 26.752 167.874 26.384 167.874 25.984ZM160.794 16.792V21.088H165.21C165.578 21.088 165.914 21 166.218 20.824C166.522 20.648 166.762 20.4 166.938 20.08C167.13 19.76 167.226 19.376 167.226 18.928C167.226 18.496 167.138 18.12 166.962 17.8C166.802 17.48 166.578 17.232 166.29 17.056C166.018 16.88 165.706 16.792 165.354 16.792H160.794ZM178.052 13.96H181.412L187.676 31H184.268L182.684 26.752H176.732L175.172 31H171.764L178.052 13.96ZM182.084 24.424L179.732 17.392L177.284 24.424H182.084ZM189.545 31V13.96H192.857V28.096H201.545V31H189.545Z" fill="#4D36AB"/>
</svg>
