<svg width="20" height="20" viewBox="0 0 20 20" fill="none" xmlns="http://www.w3.org/2000/svg">
<g clip-path="url(#clip0_202_8)">
<path d="M19.9115 4.05304C19.1902 4.36942 18.4217 4.57913 17.6205 4.68095C18.4447 4.18881 19.0739 3.41544 19.3696 2.48327C18.6011 2.94148 17.7526 3.26513 16.8483 3.44574C16.1186 2.66874 15.0785 2.1875 13.9439 2.1875C11.7426 2.1875 9.97039 3.97425 9.97039 6.16466C9.97039 6.47983 9.99706 6.78287 10.0625 7.07137C6.7569 6.91015 3.83191 5.32583 1.86697 2.91238C1.52392 3.50756 1.3227 4.18881 1.3227 4.92218C1.3227 6.29921 2.03183 7.51988 3.08885 8.22658C2.45003 8.21446 1.82333 8.02899 1.2924 7.73686C1.2924 7.74898 1.2924 7.76474 1.2924 7.7805C1.2924 9.71271 2.67064 11.3176 4.478 11.6873C4.15435 11.7758 3.80161 11.8183 3.43553 11.8183C3.18097 11.8183 2.92399 11.8037 2.68277 11.7504C3.19794 13.325 4.65983 14.4826 6.3981 14.5202C5.0453 15.5784 3.32765 16.2161 1.46816 16.2161C1.14209 16.2161 0.829344 16.2015 0.516602 16.1615C2.2779 17.2973 4.36527 17.9458 6.61629 17.9458C13.933 17.9458 17.9332 11.8849 17.9332 6.63135C17.9332 6.45558 17.9271 6.28588 17.9186 6.11739C18.7078 5.55736 19.3708 4.85793 19.9115 4.05304Z" fill="#CFCFCF"/>
</g>
<defs>
<clipPath id="clip0_202_8">
<rect width="19.3949" height="19.3949" fill="white" transform="translate(0.516602 0.369141)"/>
</clipPath>
</defs>
</svg>
