<svg width="26" height="26" viewBox="0 0 26 26" fill="none" xmlns="http://www.w3.org/2000/svg">
<g clip-path="url(#clip0_191_100)">
<path d="M13.1974 1.4161C13.1654 1.4161 13.1351 1.42412 13.1048 1.42412C13.0103 1.42145 12.9167 1.41521 12.8214 1.4161H13.1974ZM13.0513 15.918C13.0344 15.918 13.0192 15.9153 13.0023 15.9153C12.9898 15.9153 12.9782 15.918 12.9658 15.918H13.0513ZM7.751 10.582C7.76436 10.5794 7.77417 10.5651 7.78842 10.5615C8.62695 13.5957 10.7977 15.8663 13.0032 15.9144C15.0117 15.8217 17.4783 13.5922 18.2999 10.5731C18.6777 10.5963 19.0556 10.1507 19.1616 9.53052C19.2712 8.88358 19.0413 8.30614 18.6519 8.23931C18.627 8.23485 18.6011 8.25089 18.5771 8.25178C18.4639 3.25891 16.0918 1.49808 13.1048 1.42234C10.0242 1.43749 7.26623 3.57793 7.44089 8.25356C7.41148 8.25356 7.38386 8.23485 7.35534 8.2402C6.96415 8.30703 6.73603 8.88447 6.84563 9.53141C6.95256 10.1766 7.35891 10.6471 7.751 10.582ZM17.1531 16.7815L14.3541 22.2582L13.9121 18.6964L14.6027 18.1297H12.9292H11.3992L12.0907 18.6964L11.6478 22.2582L8.8524 16.7815C3.99053 17.4364 0.500061 19.5198 0.500061 24.5849H25.5001C25.5018 19.5189 22.0123 17.4373 17.1531 16.7815Z" fill="#999999"/>
</g>
<defs>
<clipPath id="clip0_191_100">
<rect width="25" height="25" fill="white" transform="translate(0.500061 0.500977)"/>
</clipPath>
</defs>
</svg>
