<svg width="20" height="20" viewBox="0 0 20 20" fill="none" xmlns="http://www.w3.org/2000/svg">
<g clip-path="url(#clip0_203_13)">
<path d="M18.4688 5.52233C18.2593 4.74338 17.6451 4.12933 16.8663 3.91958C15.4434 3.53027 9.75189 3.53027 9.75189 3.53027C9.75189 3.53027 4.06059 3.53027 2.63773 3.90482C1.87387 4.11435 1.24473 4.74349 1.03521 5.52233C0.660767 6.94507 0.660767 9.89565 0.660767 9.89565C0.660767 9.89565 0.660767 12.8611 1.03521 14.269C1.24496 15.0478 1.85889 15.6619 2.63785 15.8716C4.07557 16.261 9.75211 16.261 9.75211 16.261C9.75211 16.261 15.4434 16.261 16.8663 15.8865C17.6452 15.6768 18.2593 15.0628 18.469 14.2839C18.8433 12.8611 18.8433 9.91063 18.8433 9.91063C18.8433 9.91063 18.8583 6.94507 18.4688 5.52233V5.52233ZM7.93984 12.6215V7.1698L12.6726 9.89565L7.93984 12.6215Z" fill="#CFCFCF"/>
</g>
<defs>
<clipPath id="clip0_203_13">
<rect width="19.3949" height="19.3949" fill="white" transform="translate(0.0639648 0.369141)"/>
</clipPath>
</defs>
</svg>
